<?xml version="1.0" encoding="UTF-8" standalone="no"?>
<!-- Created with Inkscape (http://www.inkscape.org/) -->

<svg
   xmlns:dc="http://purl.org/dc/elements/1.1/"
   xmlns:cc="http://creativecommons.org/ns#"
   xmlns:rdf="http://www.w3.org/1999/02/22-rdf-syntax-ns#"
   xmlns:svg="http://www.w3.org/2000/svg"
   xmlns="http://www.w3.org/2000/svg"
   xmlns:sodipodi="http://sodipodi.sourceforge.net/DTD/sodipodi-0.dtd"
   xmlns:inkscape="http://www.inkscape.org/namespaces/inkscape"
   width="145.98996"
   height="45.865387"
   viewBox="0 0 145.98996 45.865385"
   id="svg7060"
   version="1.1"
   inkscape:version="0.91 r13725"
   sodipodi:docname="logo.svg">
  <defs
     id="defs7062" />
  <sodipodi:namedview
     id="base"
     pagecolor="#ffffff"
     bordercolor="#666666"
     borderopacity="1.0"
     inkscape:pageopacity="0.0"
     inkscape:pageshadow="2"
     inkscape:zoom="6.3102941"
     inkscape:cx="85.714286"
     inkscape:cy="23.571429"
     inkscape:document-units="px"
     inkscape:current-layer="g5096"
     showgrid="false"
     fit-margin-top="0"
     fit-margin-left="0"
     fit-margin-right="0"
     fit-margin-bottom="0"
     inkscape:window-width="1920"
     inkscape:window-height="1014"
     inkscape:window-x="0"
     inkscape:window-y="27"
     inkscape:window-maximized="1"
     units="px" />
  <metadata
     id="metadata7065">
    <rdf:RDF>
      <cc:Work
         rdf:about="">
        <dc:format>image/svg+xml</dc:format>
        <dc:type
           rdf:resource="http://purl.org/dc/dcmitype/StillImage" />
        <dc:title></dc:title>
      </cc:Work>
    </rdf:RDF>
  </metadata>
  <g
     inkscape:label="Layer 1"
     inkscape:groupmode="layer"
     id="layer1"
     transform="translate(784.42356,170.57049)">
    <g
       transform="translate(-784.42356,-170.57049)"
       style="font-style:normal;font-variant:normal;font-weight:normal;font-stretch:normal;font-size:42.44047928px;line-height:125%;font-family:'EB Garamond 12 All SC';-inkscape-font-specification:'EB Garamond 12 All SC, Normal';text-align:center;letter-spacing:0px;word-spacing:0px;writing-mode:lr-tb;text-anchor:middle;display:inline;fill:#554400;fill-opacity:1;stroke:none;stroke-width:1px;stroke-linecap:butt;stroke-linejoin:miter;stroke-opacity:1"
       id="flowRoot4159">
      <path
         d="m 32.034797,32.104537 0,0 z m 2.590362,-8.662168 0,-7.128675 q 0,-0.538795 -0.103615,-0.911807 -0.08289,-0.373012 -0.186506,-0.559518 -0.08289,-0.207229 -0.393735,-0.373012 -0.29012,-0.186506 -0.414457,-0.227952 -0.124338,-0.04144 -0.559518,-0.165783 -0.165784,-0.04145 -0.269398,-0.310843 -0.08289,-0.269398 -0.04145,-0.518072 0.04145,-0.248675 0.227952,-0.248675 0.663132,0 1.802891,0.04145 1.139759,0.04145 1.885783,0.04145 0.49735,0 1.264097,-0.04145 0.766747,-0.04145 1.657831,-0.04145 0.248675,0 0.248675,0.497349 0,0.476627 -0.248675,0.538795 -0.911807,0.124338 -1.284819,0.725302 -0.373012,0.580241 -0.414458,1.844337 -0.04145,1.139759 -0.04145,2.65253 0,1.492048 0.02072,3.066988 0.02072,1.554216 0.02072,1.927228 0,2.859759 1.802891,4.890602 1.823615,2.030844 4.662651,2.030844 2.714698,0 3.978795,-1.699277 1.284819,-1.699277 1.284819,-5.553735 l 0,-6.672771 q 0.02072,-1.264096 -0.186506,-1.906505 -0.207229,-0.64241 -0.559518,-0.849639 -0.352289,-0.227952 -1.160482,-0.414458 -0.290121,-0.08289 -0.290121,-0.600964 0.02072,-0.518072 0.331567,-0.518072 l 3.046265,0 q 0.642409,0 1.699277,-0.02072 1.056867,-0.02072 1.740722,-0.02072 0.248675,0 0.207229,0.455904 -0.02072,0.435181 -0.207229,0.476626 -1.139759,0.227952 -1.782168,0.746024 -0.621687,0.518073 -0.683856,1.595663 -0.29012,3.274217 -0.29012,6.714216 0,1.554217 -0.207229,2.901205 -0.207229,1.326265 -0.746024,2.631807 -0.518072,1.284819 -1.367711,2.196627 -0.828915,0.911807 -2.217349,1.471325 -1.367711,0.559518 -3.149879,0.559518 -2.155181,0 -3.895904,-0.725301 -1.740722,-0.725302 -2.859759,-1.989398 -1.119036,-1.284819 -1.719999,-2.94265 -0.600964,-1.657831 -0.600964,-3.564337 z"
         id="path7656"
         inkscape:connector-curvature="0" />
      <path
         d="m 55.866122,32.104537 0,0 z M 66.559133,17.805742 q -1.056867,2.590362 -3.004819,6.838554 -0.124337,0.269398 0,0.352289 0.124338,0.06217 0.538795,0.06217 l 4.973494,0 q 0.331566,0 0.373012,-0.04145 0.04145,-0.06217 -0.04145,-0.373012 -0.414457,-1.595662 -2.320963,-6.838554 -0.145061,-0.352289 -0.207229,-0.414457 -0.04145,-0.08289 -0.103615,0 -0.06217,0.06217 -0.207229,0.414457 z m -9.884818,14.423132 q -0.227952,0 -0.227952,-0.476626 0.02072,-0.476627 0.227952,-0.538796 1.512771,-0.497349 2.424578,-1.22265 0.746024,-0.600964 1.305542,-1.782169 2.072289,-4.372529 4.932048,-11.376866 0.186506,-0.538796 0.29012,-1.119036 0.04145,-0.207229 0.08289,-0.538796 0.04145,-0.352289 0.06217,-0.559518 0.04144,-0.227951 0.06217,-0.248674 0.269398,-0.06217 0.973976,-0.559518 0.725301,-0.518073 0.93253,-0.766747 0.518072,-0.580241 0.600964,-0.580241 0.165783,0 0.29012,0.373012 0.828916,2.279518 2.50747,7.045783 1.699277,4.766264 2.79759,7.688192 0.455904,1.326265 1.492048,2.424578 0.93253,0.994699 1.906506,1.22265 0.248675,0.06217 0.290121,0.538796 0.06217,0.476626 -0.290121,0.476626 -0.78747,0 -2.030843,-0.103614 -1.22265,-0.103615 -2.030843,-0.103615 -0.891084,0 -2.320964,0.103615 -1.429879,0.103614 -2.093012,0.103614 -0.186506,0 -0.227952,-0.248675 -0.02072,-0.248674 0.06217,-0.497349 0.08289,-0.248675 0.207229,-0.269398 1.139759,-0.207228 1.699277,-1.139758 0.352289,-0.559519 0.08289,-1.740723 -0.08289,-0.393735 -0.145061,-0.580241 -0.04144,-0.207229 -0.08289,-0.290121 -0.02072,-0.08289 -0.14506,-0.331566 -0.103615,-0.269397 -0.227952,-0.621687 -0.06217,-0.186506 -0.227952,-0.248674 -0.14506,-0.06217 -0.580241,-0.06217 l -6.030361,0 q -0.207229,0 -0.290121,0.103614 -0.06217,0.08289 -0.207228,0.414458 -0.165784,0.414458 -0.310844,0.725301 -0.124337,0.310844 -0.186506,0.414458 -0.04145,0.103615 -0.08289,0.269398 -0.04145,0.14506 -0.103615,0.414458 -0.186506,0.994698 0.04145,1.409156 0.663132,1.015422 1.782169,1.264096 0.29012,0.06217 0.29012,0.538796 0,0.476626 -0.29012,0.476626 -0.849639,0 -2.134458,-0.103614 -1.264096,-0.103615 -2.072289,-0.103615 -0.600964,0 -1.533494,0.103615 -0.911807,0.103614 -1.471325,0.103614 z"
         id="path7658"
         inkscape:connector-curvature="0" />
      <path
         d="m 78.992865,32.104537 0,0 z m 6.320481,-10.941686 q 0.02072,0.393735 0.08289,0.621686 0.06217,0.207229 0.248675,0.310844 0.207229,0.103614 0.352289,0.124337 0.165783,0 0.538795,0 0.103614,0 0.165783,0 1.201928,0 1.823614,-0.186506 0.621687,-0.207229 1.28482,-0.663132 1.305542,-0.808193 1.305542,-3.44 0,-3.813012 -3.813012,-3.813012 -1.098313,0 -1.471325,0.414458 -0.35229,0.393735 -0.393735,1.181205 -0.145061,3.87518 -0.124338,5.45012 z m 0,2.921927 q 0.02072,0.973976 0.06217,2.50747 0.04145,1.512771 0.06217,2.072289 0.02072,0.891084 0.683855,1.471325 0.663133,0.559518 2.072289,0.911807 0.186506,0.06217 0.186506,0.64241 0.02072,0.580241 -0.186506,0.580241 -0.165783,0 -1.678554,-0.124337 -1.492048,-0.124338 -2.403855,-0.124338 -1.056868,0 -2.776868,0.124338 -1.699277,0.124337 -1.968674,0.124337 -0.186506,0 -0.186506,-0.497349 0,-0.49735 0.186506,-0.559519 1.201927,-0.29012 1.906506,-0.973975 0.849638,-0.849639 0.849638,-1.740723 l 0,-11.335421 q 0,-1.678554 -0.373012,-2.113735 -0.43518,-0.476626 -0.704578,-0.600964 -0.269398,-0.14506 -1.139759,-0.373012 -0.124337,-0.04145 -0.227952,-0.310843 -0.08289,-0.269398 -0.04145,-0.518072 0.04145,-0.248675 0.227952,-0.248675 0.580241,0 1.823615,0.08289 1.264096,0.06217 2.051566,0.06217 0.476626,0 1.554216,-0.124337 1.077591,-0.14506 2.010121,-0.14506 3.294939,0 5.325783,1.346987 2.051566,1.326265 2.051566,3.667952 0,0.891084 -0.538795,2.051566 -0.538796,1.139759 -0.953253,1.512771 -0.849639,0.849639 -1.678554,1.222651 -0.165784,0.06217 0,0.269397 0.518072,0.766747 1.450602,2.403856 0.953253,1.616385 1.761446,2.735421 0.828915,1.119036 2.030843,2.279518 0.414458,0.414458 0.828915,0.621687 0.414458,0.207229 0.64241,0.248674 0.227952,0.02072 0.828916,0 0.600963,-0.02072 0.891084,-0.02072 0.145065,0 0.165785,0.186507 0.0207,0.165783 -0.0622,0.373012 -0.06217,0.207228 -0.186507,0.29012 -0.331566,0.227952 -0.953253,0.435181 -0.621686,0.207229 -1.119036,0.207229 -3.377831,0 -4.724819,-1.616386 -0.518072,-0.621687 -0.93253,-1.22265 -0.414458,-0.621687 -0.683855,-1.056868 -0.269398,-0.43518 -0.93253,-1.533494 -0.64241,-1.119036 -1.181205,-2.01012 -0.497349,-0.766747 -1.264096,-1.139759 -1.139759,-0.559518 -2.341687,-0.64241 -0.207229,-0.02072 -0.310843,0.145061 -0.103615,0.165783 -0.103615,0.455903 z"
         id="path7660"
         inkscape:connector-curvature="0" />
      <path
         d="m 102.32684,32.104537 0,0 z m 15.52145,-17.220722 q -3.12916,0 -4.1653,0.08289 -0.45591,0.04145 -0.45591,1.264096 l 0,12.433734 q 0,0.994699 0.5388,1.492048 0.82891,0.766747 2.21735,1.015422 0.22795,0.06217 0.29012,0.331566 0.0829,0.248675 0,0.497349 -0.0829,0.227952 -0.29012,0.227952 -0.82892,0 -2.19663,-0.14506 -1.36771,-0.14506 -2.25879,-0.14506 -0.84964,0 -2.15518,0.14506 -1.30555,0.14506 -2.09302,0.14506 -0.16578,0 -0.26939,-0.227952 -0.0829,-0.248674 -0.0207,-0.497349 0.0622,-0.269398 0.29012,-0.331566 1.38844,-0.248675 2.21735,-1.015422 0.5388,-0.497349 0.5388,-1.492048 l 0,-12.433734 q 0,-1.181205 -0.49735,-1.264096 -0.51807,-0.08289 -3.14988,-0.08289 -1.42988,0 -2.11374,1.181205 -0.14506,0.29012 -0.62168,0.746024 -0.45591,0.43518 -0.74603,0.43518 -0.58024,0 -0.0829,-1.098313 0.24868,-0.497349 0.37301,-1.07759 0.14506,-0.600964 0.22796,-1.595663 0.10361,-0.994698 0.12433,-1.181204 0.0829,-0.64241 0.55952,-0.64241 0.10362,0 0.37301,0.310843 0.2694,0.310844 0.41446,0.580241 0.31084,0.600964 1.88578,0.600964 l 11.50121,0 q 0.58024,0 0.87036,-0.02072 0.31084,-0.02072 0.68385,-0.14506 0.37302,-0.124337 0.60097,-0.393735 0.22795,-0.227952 0.53879,-0.373012 0.33157,-0.14506 0.47663,-0.14506 0.12434,0 0.24868,0.186506 0.14506,0.165783 0.0622,0.331566 -0.41445,0.808193 -0.7253,3.978795 -0.10361,0.870361 -0.51807,0.808193 -0.37301,-0.04145 -0.68386,-0.973976 -0.0207,-0.04145 -0.0622,-0.248675 -0.0414,-0.227952 -0.0622,-0.29012 -0.0207,-0.08289 -0.10362,-0.248675 -0.0622,-0.186506 -0.14506,-0.248675 -0.0622,-0.06217 -0.20723,-0.186506 -0.14506,-0.124337 -0.33156,-0.165783 -0.18651,-0.04145 -0.47663,-0.08289 -0.2694,-0.04145 -0.60096,-0.04145 z"
         id="path7662"
         inkscape:connector-curvature="0" />
      <path
         d="m 123.94081,32.104537 0,0 z m 11.23181,-17.987469 q -1.36771,0 -2.46603,0.476626 -1.07759,0.455904 -1.78216,1.222651 -0.68386,0.766747 -1.13976,1.844337 -0.43518,1.056868 -0.62169,2.196627 -0.18651,1.139759 -0.18651,2.403855 0,3.916626 1.84434,6.424096 1.86506,2.486747 5.28434,2.486747 1.40916,0 2.52819,-0.518073 1.11904,-0.518072 1.80289,-1.346987 0.70458,-0.828916 1.16048,-1.906506 0.47663,-1.098314 0.64241,-2.155181 0.18651,-1.056867 0.18651,-2.134458 0,-1.326265 -0.2694,-2.590361 -0.24867,-1.264096 -0.82891,-2.424578 -0.55952,-1.181205 -1.38844,-2.051566 -0.82891,-0.870362 -2.07229,-1.388434 -1.22265,-0.538795 -2.69397,-0.538795 z m -9.80193,8.786505 q 0,-2.569638 1.36771,-4.911325 1.36771,-2.362409 3.7094,-3.792288 2.34169,-1.450603 4.99422,-1.450603 2.79759,0 5.20144,1.264097 2.42458,1.264096 3.87518,3.58506 1.47133,2.30024 1.47133,5.118553 0,1.989398 -0.68386,3.771567 -0.68385,1.782168 -1.96867,3.191325 -1.28482,1.409156 -3.33639,2.238072 -2.03084,0.828915 -4.55903,0.828915 -4.22747,0 -7.1494,-2.859758 -2.92193,-2.880482 -2.92193,-6.983615 z"
         id="path7664"
         inkscape:connector-curvature="0" />
    </g>
    <g
       style="display:inline"
       transform="matrix(0.09312207,0,0,0.09312207,-790.72792,-172.35843)"
       id="g5096">
      <circle
         style="fill:#554400;fill-opacity:1"
         id="circle4510"
         r="21.4"
         cy="40.599998"
         cx="329.79999" />
      <path
         style="fill:#554400;fill-opacity:1"
         inkscape:connector-curvature="0"
         id="path4527"
         d="M 220,326.4 C 154.5,326.4 97.4,302.9 67.7,268.1 90.2,330.4 149.9,375 220,375 c 70.1,0 129.8,-44.6 152.3,-106.9 -29.7,34.8 -86.8,58.3 -152.3,58.3 z" />
      <path
         style="fill:#554400;fill-opacity:1"
         inkscape:connector-curvature="0"
         id="path4544"
         d="m 220,100 c 65.5,0 122.6,23.5 152.3,58.3 C 349.8,96 290.1,51.4 220,51.4 149.9,51.4 90.2,96 67.8,158.3 97.5,123.6 154.5,100 220,100 Z" />
      <circle
         style="fill:#554400;fill-opacity:1"
         id="circle4546"
         r="25.799999"
         cy="394.39999"
         cx="110.5" />
      <circle
         style="fill:#554400;fill-opacity:1"
         id="circle4548"
         r="15.7"
         cy="70"
         cx="85.099998" />
    </g>
    <g
       transform="matrix(0.53050598,0,0,0.53050598,-950.37922,-203.57968)"
       style="font-style:normal;font-variant:normal;font-weight:normal;font-stretch:normal;font-size:80px;line-height:125%;font-family:'EB Garamond 12 All SC';-inkscape-font-specification:'EB Garamond 12 All SC, Normal';text-align:center;letter-spacing:0px;word-spacing:0px;writing-mode:lr-tb;text-anchor:middle;display:inline;fill:#554400;fill-opacity:1;stroke:none;stroke-width:1px;stroke-linecap:butt;stroke-linejoin:miter;stroke-opacity:1"
       id="flowRoot6111">
      <path
         d="m 336.95312,125.4749 c -2.08333,-1.14583 -4.16667,-2.05729 -6.25,-2.73438 -1.69271,-0.54687 -5.19531,-2.26562 -5.19531,-2.26562 l 29.14063,-0.39063 c 0,0 -2.90365,1.92708 -4.33594,2.65625 -0.39063,0.20833 -0.59896,0.44271 -0.625,0.70313 -0.0261,0.28646 0.0781,0.54688 0.3125,0.78125 0.23437,0.26041 0.54687,0.50781 0.9375,0.74219 10.49479,6.06771 21.15886,10.80729 31.99219,14.21875 10.83333,3.4375 19.32292,5.15625 25.46875,5.15625 5.54687,0 10.6901,-0.76823 15.42968,-2.30469 4.73959,-1.53646 9.80469,-3.9974 15.19532,-7.38281 0.65104,-0.41667 1.18489,-0.41667 1.60156,0 0.26041,0.26041 0.40364,0.55989 0.42969,0.89843 0.0521,0.33855 -0.0391,0.62501 -0.27344,0.85938 -4.73959,3.88021 -10.09115,6.88802 -16.05469,9.02344 -5.96354,2.16145 -11.65364,3.24218 -17.07031,3.24218 -2.36979,0 -4.64844,-0.0781 -6.83594,-0.23437 -2.16146,-0.15625 -4.89583,-0.48177 -8.20312,-0.97656 -3.30729,-0.49479 -6.82292,-1.27604 -10.54688,-2.34375 -3.69791,-1.06771 -7.8125,-2.42188 -12.34375,-4.0625 -4.50521,-1.61459 -9.55729,-3.75 -15.15625,-6.40625 -5.59896,-2.65625 -11.47136,-5.71615 -17.61719,-9.17969 z"
         id="path6120"
         inkscape:connector-curvature="0"
         sodipodi:nodetypes="cccccccccsscscccscsccsc" />
    </g>
  </g>
</svg>
